<svg width="60" height="60" viewBox="0 0 60 60" fill="none" xmlns="http://www.w3.org/2000/svg">
<g clip-path="url(#clip0_217_15)">
<path d="M58.6667 14L45.3333 4C44.8357 3.62912 44.2444 3.40454 43.6261 3.35153C43.0077 3.29853 42.3868 3.41922 41.8333 3.7C41.2779 3.96983 40.8107 4.39199 40.4861 4.91725C40.1615 5.44252 39.9929 6.04924 40 6.66667V13.3333H3.33333C2.44928 13.3333 1.60143 13.6845 0.976311 14.3096C0.35119 14.9348 0 15.7826 0 16.6667C0 17.5507 0.35119 18.3986 0.976311 19.0237C1.60143 19.6488 2.44928 20 3.33333 20H40V26.6667C39.9973 27.2832 40.1676 27.8881 40.4918 28.4126C40.8159 28.9371 41.2807 29.36 41.8333 29.6333C42.3858 29.918 43.0074 30.0408 43.6266 29.9877C44.2458 29.9347 44.8374 29.7078 45.3333 29.3333L58.6667 19.3333C59.0807 19.0228 59.4167 18.6202 59.6481 18.1574C59.8795 17.6945 60 17.1842 60 16.6667C60 16.1492 59.8795 15.6388 59.6481 15.176C59.4167 14.7131 59.0807 14.3105 58.6667 14Z" fill="#494C4E"/>
<path d="M1.33333 40.6667L14.6667 30.6667C15.1643 30.2958 15.7556 30.0712 16.3739 30.0182C16.9923 29.9652 17.6132 30.0859 18.1667 30.3667C18.7221 30.6365 19.1893 31.0587 19.5139 31.5839C19.8385 32.1092 20.0071 32.7159 20 33.3334V40H56.6667C57.5507 40 58.3986 40.3512 59.0237 40.9763C59.6488 41.6015 60 42.4493 60 43.3334C60 44.2174 59.6488 45.0653 59.0237 45.6904C58.3986 46.3155 57.5507 46.6667 56.6667 46.6667H20V53.3334C20.0027 53.9499 19.8324 54.5548 19.5082 55.0793C19.1841 55.6037 18.7193 56.0267 18.1667 56.3C17.6142 56.5847 16.9926 56.7075 16.3734 56.6544C15.7542 56.6014 15.1626 56.3745 14.6667 56L1.33333 46C0.919346 45.6895 0.583335 45.2869 0.351909 44.8241C0.120484 44.3612 0 43.8508 0 43.3334C0 42.8159 0.120484 42.3055 0.351909 41.8426C0.583335 41.3798 0.919346 40.9772 1.33333 40.6667Z" fill="#494C4E"/>
</g>
<defs>
<clipPath id="clip0_217_15">
<rect width="60" height="60" fill="white"/>
</clipPath>
</defs>
</svg>
