<svg width="61" height="61" viewBox="0 0 61 61" fill="none" xmlns="http://www.w3.org/2000/svg">
<g clip-path="url(#clip0_215_8)">
<path d="M56.4591 50.125V55.125C56.4591 56.5057 55.3399 57.625 53.9591 57.625H19.2003C16.8658 57.625 14.842 56.0095 14.3246 53.733L3.40321 5.67905C3.04766 4.11465 4.23674 2.625 5.84104 2.625H14.4791C15.6392 2.625 16.6469 3.42312 16.9126 4.5524L26.4591 45.125H51.4591C54.2206 45.125 56.4591 47.3635 56.4591 50.125Z" stroke="#71717A" stroke-width="3.75" stroke-linecap="round" stroke-linejoin="round"/>
<path d="M17.6273 7.625H22.7091C24.0898 7.625 25.2091 8.7443 25.2091 10.125V15.125L20.2091 18.875" stroke="#71717A" stroke-width="3.75" stroke-linecap="round" stroke-linejoin="round"/>
<path d="M33.9591 36.0625H24.2716H18.9591" stroke="#71717A" stroke-width="3.75" stroke-linecap="round" stroke-linejoin="round"/>
</g>
<defs>
<clipPath id="clip0_215_8">
<rect width="60" height="60" fill="white" transform="translate(0.209112 0.125)"/>
</clipPath>
</defs>
</svg>
